<?xml version="1.0" encoding="UTF-8"?>
<svg width="20px" height="20px" viewBox="0 0 20 20" version="1.1" xmlns="http://www.w3.org/2000/svg" xmlns:xlink="http://www.w3.org/1999/xlink">
    <!-- Generator: sketchtool 52.5 (67469) - http://www.bohemiancoding.com/sketch -->
    <title>6F85FEF3-942B-4A87-A164-2059D1330ECD</title>
    <desc>Created with sketchtool.</desc>
    <g id="Page-1" stroke="none" stroke-width="1" fill="none" fill-rule="evenodd">
        <g id="1.-Dashboard---Landing-Page-New" transform="translate(-1322.000000, -26.000000)">
            <g id="header">
                <g id="admin-icon" transform="translate(1322.000000, 26.000000)">
                    <g id="Group" stroke="#000000" stroke-width="0.833333333">
                        <path d="M16.7125,11.6321667 C16.5419167,12.3411667 16.2625833,13.0060833 15.8923333,13.6110833 L17.4469167,15.6338333 C16.9263333,16.3225 16.3125,16.9365 15.6240833,17.4575 L13.6018333,15.90325 C12.9965,16.2743333 12.3311667,16.55425 11.6216667,16.7253333 L11.2908333,19.2533333 C10.4125833,19.3750833 9.58375,19.37425 8.71291667,19.25425 L8.38225,16.72725 C7.6715,16.5566667 7.00516667,16.2768333 6.39875,15.9056667 L4.37608333,17.46025 C3.67275,16.9285 3.05283333,16.2983333 2.55333333,15.6383333 L4.1075,13.6161667 C3.7355,13.0095 3.45508333,12.3426667 3.284,11.6313333 L0.756583333,11.3005833 C0.63475,10.41925 0.64325,9.54358333 0.756583333,8.72358333 L3.284,8.39283333 C3.45508333,7.6815 3.7355,7.01466667 4.1075,6.408 L2.55333333,4.38583333 C3.0855,3.68275 3.71575,3.06316667 4.37608333,2.56391667 L6.39875,4.11841667 C7.00508333,3.74725 7.6715,3.46741667 8.38225,3.29683333 L8.71291667,0.769833333 C9.58391667,0.649833333 10.41275,0.649083333 11.2908333,0.77075 L11.6216667,3.29875 C12.33125,3.46983333 12.9965833,3.74975 13.6019167,4.12083333 L15.6240833,2.5665 C16.3125,3.0875 16.9263333,3.7015 17.4469167,4.39016667 L15.8923333,6.41291667 C16.2625833,7.018 16.5419167,7.68283333 16.7125,8.39183333 L19.2400833,8.72258333 C19.3633333,9.614 19.35875,10.4435833 19.2400833,11.3014167 L16.7125,11.6321667 Z M9.99841667,13.4685 C11.9073889,13.4685 13.4549167,11.9209722 13.4549167,10.012 C13.4549167,8.10302776 11.9073889,6.5555 9.99841667,6.5555 C8.08944443,6.5555 6.54191667,8.10302776 6.54191667,10.012 C6.54191667,11.9209722 8.08944443,13.4685 9.99841667,13.4685 Z" id="Combined-Shape"></path>
                    </g>
                    <rect id="Rectangle-path" x="0" y="0" width="20" height="20"></rect>
                </g>
            </g>
        </g>
    </g>
</svg>