<?xml version="1.0" encoding="UTF-8"?>
<svg width="28px" height="28px" viewBox="0 0 28 28" version="1.1" xmlns="http://www.w3.org/2000/svg" xmlns:xlink="http://www.w3.org/1999/xlink">
    <!-- Generator: sketchtool 52.5 (67469) - http://www.bohemiancoding.com/sketch -->
    <title>7978E7CF-5518-48D2-A756-F1559D22EE95</title>
    <desc>Created with sketchtool.</desc>
    <g id="Page-1" stroke="none" stroke-width="1" fill="none" fill-rule="evenodd">
        <g id="2.-Information-" transform="translate(-16.000000, -228.000000)">
            <g id="Icons-" transform="translate(15.956944, 227.666667)">
                <g id="Analytics-icon" transform="translate(0.169444, 0.000000)">
                    <g id="Icon---Analytics" transform="translate(0.422184, 0.918011)" stroke="#24252A" stroke-width="1.12985939">
                        <path d="M26.4449344,3.18136626 L26.4448218,3.18136626 L26.4448218,23.4476011 C26.4448218,24.8964095 25.2526866,26.0710081 23.7820225,26.0710081 L3.21377769,26.0710081 C1.74322615,26.0710081 0.550978352,24.8965205 0.550978352,23.4476011 L0.550978352,3.18136626 C0.550978352,1.73255787 1.74311357,0.557959285 3.21377769,0.557959285 L23.7821351,0.557959285 C25.2526866,0.557959285 26.4449344,1.73244694 26.4449344,3.18136626 Z M7.16665896,15.544657 C7.97080124,15.544657 8.62268736,14.9023603 8.62268736,14.1100471 C8.62268736,13.317734 7.97080124,12.6754373 7.16665896,12.6754373 C6.36251667,12.6754373 5.71063055,13.317734 5.71063055,14.1100471 C5.71063055,14.9023603 6.36251667,15.544657 7.16665896,15.544657 Z M13.5378105,20.8052258 C14.3419528,20.8052258 14.993839,20.1629291 14.993839,19.3706159 C14.993839,18.5783028 14.3419528,17.9360061 13.5378105,17.9360061 C12.7336683,17.9360061 12.0817821,18.5783028 12.0817821,19.3706159 C12.0817821,20.1629291 12.7336683,20.8052258 13.5378105,20.8052258 Z M19.9090747,10.2733283 C20.713217,10.2733283 21.3651031,9.63103158 21.3651031,8.83871845 C21.3651031,8.04640532 20.713217,7.40410862 19.9090747,7.40410862 C19.1049324,7.40410862 18.4530463,8.04640532 18.4530463,8.83871845 C18.4530463,9.63103158 19.1049324,10.2733283 19.9090747,10.2733283 Z M21.0212764,9.75896303 L26.4449344,14.2877511 L21.0212764,9.75896303 Z M14.2820929,18.1403324 L19.165693,10.0674491 L14.2820929,18.1403324 Z M8.28077456,15.0299589 L12.4249334,18.4517025 L8.28077456,15.0299589 Z M0.550978352,19.5515367 L6.0509672,15.0299589 L0.550978352,19.5515367 Z" id="Combined-Shape"></path>
                    </g>
                    <polygon id="Rectangle-path" points="0.948611111 0.948611111 28.0652364 0.948611111 28.0652364 27.7827716 0.948611111 27.7827716"></polygon>
                </g>
            </g>
        </g>
    </g>
</svg>