<?xml version="1.0" encoding="UTF-8"?>
<svg width="22px" height="29px" viewBox="0 0 22 29" version="1.1" xmlns="http://www.w3.org/2000/svg" xmlns:xlink="http://www.w3.org/1999/xlink">
    <!-- Generator: sketchtool 52.5 (67469) - http://www.bohemiancoding.com/sketch -->
    <title>A3288271-A850-4C62-AAA4-173AFA76A512</title>
    <desc>Created with sketchtool.</desc>
    <g id="Page-1" stroke="none" stroke-width="1" fill="none" fill-rule="evenodd">
        <g id="2.-Information-" transform="translate(-20.000000, -307.000000)">
            <g id="Icons-" transform="translate(15.956944, 227.666667)">
                <g id="Document-icon" transform="translate(1.118056, 79.683333)">
                    <g id="Group" transform="translate(3.438715, 0.000000)" stroke="#3A97D3" stroke-width="1.16752137">
                        <path d="M20.0645598,26.5029685 C20.0645598,27.0127084 19.6587914,27.4368689 19.1573121,27.4368689 L1.48094005,27.4368689 C0.98049235,27.4368689 0.578621157,27.0127084 0.578621157,26.5029685 L0.578621157,1.52443265 C0.578621157,1.01492632 0.98049235,0.583877436 1.48094005,0.583877436 L15.4796061,0.583877436 C15.7175652,0.583877436 15.8281772,0.688253846 15.997362,0.858128205 L19.7941621,4.6744053 C19.9664418,4.84754872 20.0645598,5.00714889 20.0645598,5.25396291 L20.0645598,26.5029685 Z M16.0951361,20.4317407 L4.5849537,20.4317407 L16.0951361,20.4317407 Z M16.0951361,16.9291766 L4.5849537,16.9291766 L16.0951361,16.9291766 Z M16.0951361,13.4266125 L4.5849537,13.4266125 L16.0951361,13.4266125 Z M10.979474,9.92404838 L4.5849537,9.92404838 L10.979474,9.92404838 Z M15.4796061,0.583877436 L15.4796061,5.25396291 L20.0645598,5.25396291" id="Combined-Shape"></path>
                    </g>
                    <polygon id="Rectangle-path" points="0 0.000116752137 27.5097222 0.000116752137 27.5097222 28.0206296 0 28.0206296"></polygon>
                </g>
            </g>
        </g>
    </g>
</svg>